<svg xmlns="http://www.w3.org/2000/svg" viewBox="0 0 1200 800" width="1200" height="800">
  <rect x="0" y="0" width="1200" height="800" fill="#0D1B2A" />
  <g>
    <line x1="725.0" y1="463.5" x2="684.9" y2="154.9" stroke="#496C8A" stroke-width="1" stroke-opacity="0.55" />
    <line x1="684.9" y1="154.9" x2="961.9" y2="247.1" stroke="#496C8A" stroke-width="1" stroke-opacity="0.55" />
    <line x1="961.9" y1="247.1" x2="541.1" y2="403.8" stroke="#496C8A" stroke-width="1" stroke-opacity="0.55" />
    <line x1="541.1" y1="403.8" x2="773.4" y2="70.4" stroke="#496C8A" stroke-width="1" stroke-opacity="0.55" />
    <line x1="773.4" y1="70.4" x2="1002.6" y2="505.7" stroke="#496C8A" stroke-width="1" stroke-opacity="0.55" />
    <line x1="1002.6" y1="505.7" x2="577.4" y2="351.3" stroke="#496C8A" stroke-width="1" stroke-opacity="0.55" />
    <line x1="577.4" y1="351.3" x2="1120.5" y2="631.6" stroke="#496C8A" stroke-width="1" stroke-opacity="0.55" />
    <line x1="1120.5" y1="631.6" x2="514.8" y2="188.8" stroke="#496C8A" stroke-width="1" stroke-opacity="0.55" />
    <line x1="514.8" y1="188.8" x2="877.2" y2="643.2" stroke="#496C8A" stroke-width="1" stroke-opacity="0.55" />
    <line x1="877.2" y1="643.2" x2="739.3" y2="269.3" stroke="#496C8A" stroke-width="1" stroke-opacity="0.55" />
    <line x1="739.3" y1="269.3" x2="1108.3" y2="91.2" stroke="#496C8A" stroke-width="1" stroke-opacity="0.55" />
    <line x1="1108.3" y1="91.2" x2="767.4" y2="683.5" stroke="#496C8A" stroke-width="1" stroke-opacity="0.55" />
    <line x1="767.4" y1="683.5" x2="774.4" y2="240.2" stroke="#496C8A" stroke-width="1" stroke-opacity="0.55" />
    <line x1="774.4" y1="240.2" x2="866.4" y2="497.5" stroke="#496C8A" stroke-width="1" stroke-opacity="0.55" />
    <line x1="866.4" y1="497.5" x2="507.1" y2="312.0" stroke="#496C8A" stroke-width="1" stroke-opacity="0.55" />
    <line x1="507.1" y1="312.0" x2="918.2" y2="72.4" stroke="#496C8A" stroke-width="1" stroke-opacity="0.55" />
    <line x1="725.0" y1="463.5" x2="541.1" y2="403.8" stroke="#496C8A" stroke-width="1" stroke-opacity="0.55" />
    <line x1="725.0" y1="463.5" x2="577.4" y2="351.3" stroke="#496C8A" stroke-width="1" stroke-opacity="0.55" />
    <line x1="725.0" y1="463.5" x2="877.2" y2="643.2" stroke="#496C8A" stroke-width="1" stroke-opacity="0.55" />
    <line x1="725.0" y1="463.5" x2="739.3" y2="269.3" stroke="#496C8A" stroke-width="1" stroke-opacity="0.55" />
    <line x1="725.0" y1="463.5" x2="767.4" y2="683.5" stroke="#496C8A" stroke-width="1" stroke-opacity="0.55" />
    <line x1="725.0" y1="463.5" x2="774.4" y2="240.2" stroke="#496C8A" stroke-width="1" stroke-opacity="0.55" />
    <line x1="725.0" y1="463.5" x2="866.4" y2="497.5" stroke="#496C8A" stroke-width="1" stroke-opacity="0.55" />
    <line x1="684.9" y1="154.9" x2="773.4" y2="70.4" stroke="#496C8A" stroke-width="1" stroke-opacity="0.55" />
    <line x1="684.9" y1="154.9" x2="577.4" y2="351.3" stroke="#496C8A" stroke-width="1" stroke-opacity="0.55" />
    <line x1="684.9" y1="154.9" x2="514.8" y2="188.8" stroke="#496C8A" stroke-width="1" stroke-opacity="0.55" />
    <line x1="684.9" y1="154.9" x2="739.3" y2="269.3" stroke="#496C8A" stroke-width="1" stroke-opacity="0.55" />
    <line x1="684.9" y1="154.9" x2="774.4" y2="240.2" stroke="#496C8A" stroke-width="1" stroke-opacity="0.55" />
    <line x1="684.9" y1="154.9" x2="507.1" y2="312.0" stroke="#496C8A" stroke-width="1" stroke-opacity="0.55" />
    <line x1="684.9" y1="154.9" x2="918.2" y2="72.4" stroke="#496C8A" stroke-width="1" stroke-opacity="0.55" />
    <line x1="961.9" y1="247.1" x2="773.4" y2="70.4" stroke="#496C8A" stroke-width="1" stroke-opacity="0.55" />
    <line x1="961.9" y1="247.1" x2="739.3" y2="269.3" stroke="#496C8A" stroke-width="1" stroke-opacity="0.55" />
    <line x1="961.9" y1="247.1" x2="1108.3" y2="91.2" stroke="#496C8A" stroke-width="1" stroke-opacity="0.55" />
    <line x1="961.9" y1="247.1" x2="774.4" y2="240.2" stroke="#496C8A" stroke-width="1" stroke-opacity="0.55" />
    <line x1="961.9" y1="247.1" x2="918.2" y2="72.4" stroke="#496C8A" stroke-width="1" stroke-opacity="0.55" />
    <line x1="541.1" y1="403.8" x2="577.4" y2="351.3" stroke="#496C8A" stroke-width="1" stroke-opacity="0.55" />
    <line x1="541.1" y1="403.8" x2="514.8" y2="188.8" stroke="#496C8A" stroke-width="1" stroke-opacity="0.55" />
    <line x1="541.1" y1="403.8" x2="739.3" y2="269.3" stroke="#496C8A" stroke-width="1" stroke-opacity="0.55" />
    <line x1="541.1" y1="403.8" x2="507.1" y2="312.0" stroke="#496C8A" stroke-width="1" stroke-opacity="0.55" />
    <line x1="773.4" y1="70.4" x2="739.3" y2="269.3" stroke="#496C8A" stroke-width="1" stroke-opacity="0.55" />
    <line x1="773.4" y1="70.4" x2="774.4" y2="240.2" stroke="#496C8A" stroke-width="1" stroke-opacity="0.55" />
    <line x1="773.4" y1="70.4" x2="918.2" y2="72.4" stroke="#496C8A" stroke-width="1" stroke-opacity="0.55" />
    <line x1="1002.6" y1="505.7" x2="1120.5" y2="631.6" stroke="#496C8A" stroke-width="1" stroke-opacity="0.55" />
    <line x1="1002.6" y1="505.7" x2="877.2" y2="643.2" stroke="#496C8A" stroke-width="1" stroke-opacity="0.55" />
    <line x1="1002.6" y1="505.7" x2="866.4" y2="497.5" stroke="#496C8A" stroke-width="1" stroke-opacity="0.55" />
    <line x1="577.4" y1="351.3" x2="514.8" y2="188.8" stroke="#496C8A" stroke-width="1" stroke-opacity="0.55" />
    <line x1="577.4" y1="351.3" x2="739.3" y2="269.3" stroke="#496C8A" stroke-width="1" stroke-opacity="0.55" />
    <line x1="577.4" y1="351.3" x2="774.4" y2="240.2" stroke="#496C8A" stroke-width="1" stroke-opacity="0.55" />
    <line x1="577.4" y1="351.3" x2="507.1" y2="312.0" stroke="#496C8A" stroke-width="1" stroke-opacity="0.55" />
    <line x1="1120.5" y1="631.6" x2="877.2" y2="643.2" stroke="#496C8A" stroke-width="1" stroke-opacity="0.55" />
    <line x1="514.8" y1="188.8" x2="739.3" y2="269.3" stroke="#496C8A" stroke-width="1" stroke-opacity="0.55" />
    <line x1="514.8" y1="188.8" x2="507.1" y2="312.0" stroke="#496C8A" stroke-width="1" stroke-opacity="0.55" />
    <line x1="877.2" y1="643.2" x2="767.4" y2="683.5" stroke="#496C8A" stroke-width="1" stroke-opacity="0.55" />
    <line x1="877.2" y1="643.2" x2="866.4" y2="497.5" stroke="#496C8A" stroke-width="1" stroke-opacity="0.55" />
    <line x1="739.3" y1="269.3" x2="774.4" y2="240.2" stroke="#496C8A" stroke-width="1" stroke-opacity="0.55" />
    <line x1="739.3" y1="269.3" x2="507.1" y2="312.0" stroke="#496C8A" stroke-width="1" stroke-opacity="0.55" />
    <line x1="1108.3" y1="91.2" x2="918.2" y2="72.4" stroke="#496C8A" stroke-width="1" stroke-opacity="0.55" />
    <line x1="767.4" y1="683.5" x2="866.4" y2="497.5" stroke="#496C8A" stroke-width="1" stroke-opacity="0.55" />
    <line x1="774.4" y1="240.2" x2="918.2" y2="72.4" stroke="#496C8A" stroke-width="1" stroke-opacity="0.55" />
    <circle cx="725.0" cy="463.5" r="4" fill="#F5F7FA" fill-opacity="1.0" />
    <circle cx="684.9" cy="154.9" r="4" fill="#F5F7FA" fill-opacity="1.0" />
    <circle cx="961.9" cy="247.1" r="2.2" fill="#496C8A" fill-opacity="0.85" />
    <circle cx="541.1" cy="403.8" r="2.2" fill="#496C8A" fill-opacity="0.85" />
    <circle cx="773.4" cy="70.4" r="2.2" fill="#496C8A" fill-opacity="0.85" />
    <circle cx="1002.6" cy="505.7" r="2.2" fill="#496C8A" fill-opacity="0.85" />
    <circle cx="577.4" cy="351.3" r="4" fill="#F5F7FA" fill-opacity="1.0" />
    <circle cx="1120.5" cy="631.6" r="2.2" fill="#496C8A" fill-opacity="0.85" />
    <circle cx="514.8" cy="188.8" r="2.2" fill="#496C8A" fill-opacity="0.85" />
    <circle cx="877.2" cy="643.2" r="4" fill="#F5F7FA" fill-opacity="1.0" />
    <circle cx="739.3" cy="269.3" r="2.2" fill="#496C8A" fill-opacity="0.85" />
    <circle cx="1108.3" cy="91.2" r="2.2" fill="#496C8A" fill-opacity="0.85" />
    <circle cx="767.4" cy="683.5" r="2.2" fill="#496C8A" fill-opacity="0.85" />
    <circle cx="774.4" cy="240.2" r="2.2" fill="#496C8A" fill-opacity="0.85" />
    <circle cx="866.4" cy="497.5" r="2.2" fill="#496C8A" fill-opacity="0.85" />
    <circle cx="507.1" cy="312.0" r="2.2" fill="#496C8A" fill-opacity="0.85" />
    <circle cx="918.2" cy="72.4" r="2.2" fill="#496C8A" fill-opacity="0.85" />
  </g>
</svg>
